<svg width="38" height="34" viewBox="0 0 38 34" fill="none" xmlns="http://www.w3.org/2000/svg">
<path fill-rule="evenodd" clip-rule="evenodd" d="M19.7392 0.874445C19.562 0.758986 19.3752 0.658756 19.181 0.574829C18.9905 0.596868 18.8097 0.670907 18.6585 0.788841L18.4997 0.883362L12.1828 4.62856C10.0772 5.8734 7.97157 7.1218 5.86593 8.37377C5.77244 8.41323 5.69167 8.47774 5.6325 8.56019C5.57334 8.64264 5.5381 8.73982 5.53065 8.84102C5.53065 9.43847 5.53065 10.0359 5.53065 10.6352C5.53065 11.0846 5.53065 11.5269 5.53065 11.9816C5.5227 12.0717 5.54084 12.1621 5.5829 12.2421C5.62496 12.3221 5.68917 12.3883 5.76785 12.4329C6.42771 12.8341 7.09472 13.2265 7.76172 13.6188C8.3877 13.988 9.01012 14.3572 9.6361 14.7335L9.71814 14.7798C9.82336 14.844 9.9482 14.9207 10.0409 14.8244C10.0798 14.6834 10.0907 14.5362 10.073 14.3911C10.0686 14.3121 10.0686 14.2329 10.073 14.1539C10.073 13.8168 10.073 13.4815 10.073 13.1444C10.073 12.5452 10.073 11.946 10.0944 11.3485C10.278 11.3854 10.451 11.4628 10.6009 11.575C10.6562 11.6089 10.7115 11.6446 10.7668 11.6749L12.0883 12.456C14.3354 13.7841 16.582 15.1133 18.8279 16.4438C18.9019 16.5047 18.9925 16.5419 19.088 16.5505C19.1834 16.5591 19.2793 16.5387 19.3629 16.4919L19.3843 16.4777L27.3295 11.7551C27.4098 11.7106 27.4847 11.6624 27.5596 11.616C27.7425 11.4886 27.9432 11.3889 28.1552 11.32C28.1958 11.5896 28.2089 11.8627 28.1945 12.135C28.1945 12.2367 28.1945 12.3383 28.1945 12.4436C28.1945 13.1712 28.1945 13.8976 28.1945 14.6229V16.0746C28.1945 16.3546 28.3728 16.4688 28.5833 16.5972C29.2396 16.9824 29.8941 17.3712 30.545 17.7582C31.2584 18.1808 31.9718 18.6053 32.6851 19.0226C32.9152 19.1582 33.1114 19.0672 33.3183 18.9424C33.883 18.6035 34.4507 18.2665 35.0214 17.9312C35.698 17.5317 36.3709 17.131 37.0403 16.7291C37.2329 16.6007 37.0581 16.4902 36.9351 16.4099L36.9047 16.3903C36.3364 16.055 35.7681 15.7191 35.1998 15.3826L33.1007 14.1342C32.9116 14.0183 32.7173 13.8988 32.7226 13.6474C32.7226 12.0423 32.7226 10.4176 32.7226 8.80357C32.7369 8.58243 32.5443 8.44689 32.3659 8.3381L26.1721 4.67672L19.9711 1.01177C19.8926 0.968967 19.8159 0.920814 19.7392 0.874445ZM7.28198 16.203L5.21498 14.9814C5.14163 14.9328 5.05517 14.9077 4.96719 14.9096C4.87922 14.9116 4.79393 14.9403 4.72276 14.9921L0.998955 17.1964C0.886696 17.2502 0.799725 17.3454 0.756409 17.4621C1.36634 17.8188 1.98519 18.1933 2.60583 18.5607C3.39588 19.028 4.18594 19.4952 4.96174 19.9625C5.16683 20.0962 5.18823 20.2675 5.18823 20.4975C5.18823 21.2644 5.18823 22.0307 5.18823 22.7964C5.18823 23.5632 5.18823 24.3283 5.18823 25.0952C5.17586 25.2007 5.19626 25.3074 5.24668 25.4009C5.29709 25.4944 5.37507 25.5701 5.47001 25.6177L7.12325 26.5968C9.15161 27.7965 11.1817 29.0003 13.2137 30.2083C13.269 30.2386 13.3225 30.2725 13.3777 30.3082C13.5052 30.401 13.6484 30.4699 13.8004 30.5115C13.845 30.4651 13.8896 30.4187 13.9324 30.3688C13.9128 30.4401 13.8949 30.5079 13.8753 30.5757C14.7367 31.1107 15.6159 31.6333 16.4952 32.1504C17.1265 32.5214 17.7561 32.8924 18.382 33.2722C18.5818 33.3917 18.769 33.4969 18.9973 33.3614L22.2075 31.4549C25.3404 29.6061 28.4685 27.7543 31.5919 25.8995C31.6561 25.8603 31.7203 25.8246 31.7845 25.789C32.0102 25.6849 32.2068 25.5269 32.357 25.3288C32.3445 24.6618 32.3463 23.9913 32.357 23.3225C32.357 22.8623 32.357 22.4022 32.357 21.9439C32.3695 21.7655 32.1787 21.63 32.052 21.548C31.3387 21.1182 30.6253 20.6955 29.9119 20.2728C29.3073 19.9161 28.7027 19.5594 28.0982 19.2027C27.9876 19.135 27.9056 19.1421 27.8521 19.2295C27.8324 19.8055 27.836 20.3869 27.8396 20.9666C27.8396 21.5016 27.8396 22.0366 27.8396 22.5716C27.82 22.7874 27.688 22.8677 27.5346 22.9604C27.4989 22.9836 27.4597 23.0068 27.4222 23.0336C26.2904 23.6803 25.1662 24.3384 24.0498 25.0078C23.9805 25.0453 23.9132 25.0863 23.8483 25.1309C23.6976 25.2569 23.5095 25.3296 23.3132 25.3377C23.2829 24.2927 23.2865 23.244 23.29 22.1971C23.29 21.5551 23.29 20.9131 23.29 20.271C23.233 20.1373 23.0814 20.2211 22.9869 20.271L22.9619 20.2835C22.3181 20.6687 21.6725 21.0504 21.0269 21.4338L19.0901 22.5823C19.0103 22.6452 18.9132 22.6821 18.8118 22.6882C18.7104 22.6943 18.6096 22.6691 18.5229 22.6162C17.8827 22.2453 17.246 21.8672 16.6093 21.4873C15.8959 21.0664 15.1951 20.6438 14.4817 20.2389C14.4121 20.1819 14.3354 20.1926 14.2498 20.2728C14.2356 21.0129 14.2391 21.7548 14.2498 22.4985C14.2498 23.4509 14.2605 24.4014 14.2249 25.352C14.0254 25.3222 13.8369 25.2417 13.6774 25.1184C13.6167 25.0809 13.5543 25.0399 13.4883 25.0025L12.4307 24.3765C11.6627 23.9175 10.8946 23.4634 10.1265 23.0139L10.0356 22.9533C9.88222 22.8588 9.71636 22.7536 9.72171 22.5574C9.71101 21.0254 9.72171 19.4881 9.72171 17.9543C9.72476 17.8478 9.69513 17.7428 9.63679 17.6535C9.57845 17.5643 9.49419 17.495 9.39534 17.455L7.28198 16.203Z" fill="#BE3434"/>
</svg>
