<svg width="12" height="14" viewBox="0 0 12 14" fill="none" xmlns="http://www.w3.org/2000/svg">
<path d="M10.6786 0.142822C10.8155 0.142822 10.9464 0.169608 11.0714 0.223179C11.2678 0.30056 11.4241 0.422584 11.5402 0.589251C11.6562 0.755917 11.7143 0.940441 11.7143 1.14282V12.6518C11.7143 12.8541 11.6562 13.0387 11.5402 13.2053C11.4241 13.372 11.2678 13.494 11.0714 13.5714C10.9583 13.619 10.8274 13.6428 10.6786 13.6428C10.3928 13.6428 10.1458 13.5476 9.93749 13.3571L5.99999 9.57139L2.06249 13.3571C1.84821 13.5535 1.60118 13.6517 1.32142 13.6517C1.18452 13.6517 1.05356 13.625 0.928563 13.5714C0.732134 13.494 0.575884 13.372 0.459813 13.2053C0.343741 13.0387 0.285706 12.8541 0.285706 12.6518V1.14282C0.285706 0.940441 0.343741 0.755917 0.459813 0.589251C0.575884 0.422584 0.732134 0.30056 0.928563 0.223179C1.05356 0.169608 1.18452 0.142822 1.32142 0.142822H10.6786Z" fill="white"/>
</svg>
