<svg width="19" height="15" viewBox="0 0 19 15" fill="none" xmlns="http://www.w3.org/2000/svg">
<path d="M15.9793 2.38483C15.9793 2.38483 14.1257 0.85553 11.9325 0.679749L11.7377 1.09576C13.7193 1.60553 14.6266 2.33795 15.5785 3.23444C13.942 2.35553 12.3221 1.52936 9.50554 1.52936C6.68894 1.52936 5.06912 2.35553 3.43259 3.23444C4.38445 2.33795 5.46433 1.5235 7.27341 1.09576L7.07859 0.679749C4.77966 0.908264 3.03181 2.38483 3.03181 2.38483C3.03181 2.38483 0.961108 5.54889 0.604858 11.7598C2.69226 14.2969 5.86511 14.3145 5.86511 14.3145L6.52752 13.3829C5.4031 12.9727 4.12839 12.2344 3.03181 10.9044C4.33992 11.9473 6.32156 13.0372 9.51111 13.0372C12.7007 13.0372 14.6767 11.9532 15.9904 10.9044C14.8938 12.2344 13.6191 12.9727 12.4947 13.3829L13.1571 14.3145C13.1571 14.3145 16.33 14.2969 18.4174 11.7598C18.05 5.54889 15.9793 2.38483 15.9793 2.38483ZM6.86707 10.0547C6.0822 10.0547 5.44763 9.29303 5.44763 8.34967C5.44763 7.40631 6.0822 6.64459 6.86707 6.64459C7.65193 6.64459 8.2865 7.40631 8.2865 8.34967C8.2865 9.29303 7.65193 10.0547 6.86707 10.0547ZM12.1329 10.0547C11.348 10.0547 10.7135 9.29303 10.7135 8.34967C10.7135 7.40631 11.348 6.64459 12.1329 6.64459C12.9178 6.64459 13.5523 7.40631 13.5523 8.34967C13.5523 9.29303 12.9122 10.0547 12.1329 10.0547Z" fill="white"/>
</svg>
