<svg width="18" height="14" viewBox="0 0 18 14" fill="none" xmlns="http://www.w3.org/2000/svg">
<path d="M17.8113 6.37599C15.6898 3.19424 13.1541 0.249817 9 0.249817C4.84594 0.249817 2.31023 3.19424 0.188705 6.37599C0.0656532 6.56084 0 6.77796 0 7.00002C0 7.22209 0.0656532 7.4392 0.188705 7.62406C2.31023 10.8058 4.84594 13.7502 9 13.7502C13.1541 13.7502 15.6898 10.8058 17.8113 7.62406C17.9344 7.4392 18 7.22209 18 7.00002C18 6.77796 17.9344 6.56084 17.8113 6.37599ZM9 11.5002C6.61261 11.5002 4.74927 10.2269 2.48712 7.00002C4.74927 3.77324 6.61261 2.49989 9 2.49989C11.3874 2.49989 13.2507 3.77324 15.5129 7.00002C13.2507 10.2269 11.3874 11.5002 9 11.5002Z" fill="#798694"/>
<path d="M9 4.75C8.55499 4.75 8.11998 4.88196 7.74997 5.12919C7.37996 5.37643 7.09157 5.72783 6.92127 6.13896C6.75097 6.5501 6.70642 7.0025 6.79323 7.43895C6.88005 7.87541 7.09434 8.27632 7.40901 8.59099C7.72368 8.90566 8.12459 9.11995 8.56105 9.20677C8.9975 9.29358 9.4499 9.24903 9.86104 9.07873C10.2722 8.90843 10.6236 8.62004 10.8708 8.25003C11.118 7.88002 11.25 7.44501 11.25 7C11.2492 6.40351 11.0119 5.83168 10.5901 5.40989C10.1683 4.98811 9.59649 4.7508 9 4.75Z" fill="#798694"/>
</svg>
