<svg width="16" height="16" viewBox="0 0 16 16" fill="none" xmlns="http://www.w3.org/2000/svg">
<path d="M8.00002 3.33333C9.07786 3.33333 10.0675 3.70235 10.8576 4.31604L13.2823 2.00273C11.8725 0.759969 10.0271 0 8.00002 0C4.92828 0 2.26447 1.73328 0.923889 4.27323L3.62018 6.40186C4.27334 4.61292 5.98501 3.33333 8.00002 3.33333Z" fill="#F44336"/>
<path d="M15.9307 9.0012C15.9724 8.67344 16 8.33909 16 7.99998C16 7.42808 15.9375 6.8712 15.8235 6.33331H8V9.66665H12.3241C11.9743 10.5758 11.3515 11.3452 10.5587 11.8796L13.265 14.0162C14.6996 12.7569 15.6813 10.9936 15.9307 9.0012Z" fill="#2196F3"/>
<path d="M3.33333 8.00002C3.33333 7.43772 3.43791 6.9011 3.62016 6.40188L0.923869 4.27325C0.336222 5.3867 0 6.65346 0 8.00002C0 9.33152 0.330037 10.5842 0.905477 11.6887L3.60518 9.55731C3.43229 9.06964 3.33333 8.54698 3.33333 8.00002Z" fill="#FFC107"/>
<path d="M7.99998 12.6667C5.96962 12.6667 4.24693 11.3677 3.60516 9.55731L0.905457 11.6887C2.23948 14.249 4.91319 16 7.99998 16C10.0185 16 11.8592 15.2501 13.265 14.0162L10.5587 11.8797C9.82745 12.3726 8.95225 12.6667 7.99998 12.6667Z" fill="#00B060"/>
<path opacity="0.1" d="M7.99998 15.8333C5.64553 15.8333 3.52846 14.8619 2.03168 13.3142C3.49689 14.9585 5.62429 16 7.99998 16C10.3537 16 12.4635 14.9791 13.9254 13.3605C12.433 14.8831 10.3321 15.8333 7.99998 15.8333Z" fill="black"/>
<path opacity="0.1" d="M8 9.5V9.66667H12.3241L12.3917 9.5H8Z" fill="black"/>
<path d="M15.9963 8.098C15.9968 8.06517 16 8.0329 16 7.99998C16 7.99066 15.9986 7.98167 15.9985 7.97235C15.9981 8.01434 15.996 8.05585 15.9963 8.098Z" fill="#E6E6E6"/>
<path opacity="0.2" d="M8 6.33331V6.49998H15.857C15.8465 6.44497 15.8351 6.38792 15.8235 6.33331H8Z" fill="white"/>
<path d="M15.8235 6.33333H8V9.66667H12.3241C11.6517 11.4144 9.98478 12.6667 8 12.6667C5.42269 12.6667 3.33333 10.5773 3.33333 8C3.33333 5.42265 5.42269 3.33333 8 3.33333C8.93457 3.33333 9.79594 3.62044 10.5257 4.09379C10.6374 4.16638 10.7526 4.23454 10.8575 4.31604L13.2823 2.00273L13.2276 1.96065C11.8246 0.74471 10.0024 0 8 0C3.58171 0 0 3.58171 0 8C0 12.4183 3.58171 16 8 16C12.0785 16 15.437 12.9458 15.9307 9.00122C15.9724 8.67346 16 8.33911 16 8C16 7.4281 15.9375 6.87122 15.8235 6.33333Z" fill="url(#paint0_linear)"/>
<path opacity="0.1" d="M10.5257 3.92714C9.79592 3.4538 8.93455 3.16669 7.99998 3.16669C5.42267 3.16669 3.33331 5.256 3.33331 7.83335C3.33331 7.86147 3.33369 7.88344 3.33418 7.91148C3.37914 5.37303 5.45079 3.33335 7.99998 3.33335C8.93455 3.33335 9.79592 3.62046 10.5257 4.09381C10.6373 4.1664 10.7526 4.23456 10.8575 4.31606L13.2823 2.00275L10.8575 4.14939C10.7526 4.06789 10.6373 3.99974 10.5257 3.92714Z" fill="black"/>
<path opacity="0.2" d="M8 0.166667C9.98336 0.166667 11.7886 0.898926 13.1862 2.0944L13.2823 2.00273L13.209 1.93885C11.806 0.722906 10.0024 0 8 0C3.58171 0 0 3.58171 0 8C0 8.02812 0.00390627 8.05526 0.00419107 8.08333C0.0493571 3.7039 3.60982 0.166667 8 0.166667Z" fill="white"/>
<defs>
<linearGradient id="paint0_linear" x1="0" y1="8" x2="16" y2="8" gradientUnits="userSpaceOnUse">
<stop stop-color="white" stop-opacity="0.2"/>
<stop offset="1" stop-color="white" stop-opacity="0"/>
</linearGradient>
</defs>
</svg>
