<svg width="409" height="351" viewBox="0 0 409 351" fill="none" xmlns="http://www.w3.org/2000/svg">
<mask id="mask0" mask-type="alpha" maskUnits="userSpaceOnUse" x="-73" y="27" width="293" height="198">
<rect x="-73" y="27.3927" width="292.036" height="197.321" fill="#121212"/>
</mask>
<g mask="url(#mask0)">
</g>
<mask id="mask1" mask-type="alpha" maskUnits="userSpaceOnUse" x="-73" y="-91" width="482" height="442">
<rect width="481.464" height="442" transform="matrix(-1 0 0 1 408.464 -91)" fill="url(#paint0_linear)"/>
</mask>
<g mask="url(#mask1)">
<g filter="url(#filter0_b)">
<path fill-rule="evenodd" clip-rule="evenodd" d="M124.042 -80.0436C122.06 -81.2546 120.065 -82.4741 117.971 -83.4169C117.29 -83.7238 116.541 -83.8895 115.805 -83.7556C113.892 -83.4074 112.009 -82.2317 110.253 -81.1351C109.557 -80.7006 108.881 -80.2785 108.231 -79.9253C81.3773 -64.0241 54.5121 -48.1421 27.6469 -32.2602C0.780457 -16.3776 -26.0859 -0.494921 -52.9408 15.407C-55.2739 16.7951 -57.1435 18.43 -57.2053 21.3604C-57.2759 28.9838 -57.2658 36.6173 -57.2557 44.2522C-57.2482 49.9787 -57.2406 55.706 -57.2671 61.4305C-57.2671 63.8983 -56.4791 65.9187 -54.2387 67.1835C-45.8226 72.3099 -37.3121 77.3134 -28.8024 82.3165C-20.7986 87.0222 -12.7953 91.7275 -4.872 96.5343C-4.55553 96.6872 -4.20601 96.9011 -3.83723 97.1268C-2.87948 97.713 -1.79182 98.3786 -0.81572 98.2627C0.0153809 98.1639 0.465866 97.2891 0.608238 96.4644C0.842339 95.1083 0.765724 93.6206 0.690506 92.1599C0.637108 91.1229 0.584412 90.0995 0.644089 89.1464C0.688583 84.8548 0.661003 80.5571 0.633415 76.2585C0.598328 70.7902 0.563225 65.3204 0.676468 59.8594C0.749199 56.3522 3.85642 54.034 6.82748 55.8991C7.0064 56.0114 7.18515 56.1244 7.36398 56.2374C8.06388 56.68 8.765 57.1232 9.48219 57.5284C15.1058 60.8535 20.7278 64.1774 26.3485 67.5005C55.0121 84.4473 83.6449 101.376 112.31 118.358C114.597 119.747 116.621 120.379 119.109 118.96L119.499 118.729C153.3 98.7402 187.1 78.7513 220.886 58.7777C221.901 58.2009 222.864 57.5957 223.812 56.9988C224.361 56.654 224.904 56.312 225.451 55.9799C228.472 54.1462 231.923 56.2453 231.957 59.7784C231.969 61.0506 231.946 62.3236 231.922 63.6069C231.899 64.9085 231.874 66.2207 231.887 67.5536C231.915 76.8276 231.909 86.0905 231.904 95.3522C231.9 101.524 231.896 107.696 231.903 113.87C231.825 117.448 234.081 118.898 236.862 120.533C245.234 125.45 253.578 130.405 261.919 135.359C271.004 140.755 280.085 146.149 289.196 151.488C292.147 153.215 294.65 152.059 297.277 150.455C304.485 146.134 311.742 141.843 318.998 137.553C327.62 132.454 336.24 127.357 344.774 122.214C347.211 120.593 344.995 119.168 343.423 118.157C343.291 118.072 343.163 117.99 343.043 117.911C335.781 113.626 328.522 109.334 321.262 105.041C312.349 99.7713 303.435 94.5004 294.511 89.239C292.085 87.7583 289.613 86.2314 289.69 83.0233C289.659 62.4485 289.69 41.8119 289.721 21.237C289.906 18.3991 287.372 16.6254 285.24 15.299C258.864 -0.287142 232.491 -15.8887 206.118 -31.4903C179.748 -47.0903 153.378 -62.6904 127.004 -78.275C126.013 -78.8389 125.029 -79.4402 124.042 -80.0436ZM-34.8737 115.521C-43.6595 110.307 -52.4412 105.096 -61.1927 99.9341C-63.3072 98.6076 -65.3908 98.7619 -67.4744 100.058C-83.3407 109.466 -99.1453 118.813 -115.012 128.191C-117.461 129.39 -116.408 132.605 -114.065 134.001C-107.601 137.852 -101.065 141.718 -94.5187 145.589C-84.4462 151.546 -74.3514 157.516 -64.4648 163.467C-61.841 165.179 -61.5786 167.354 -61.5786 170.3C-61.6249 180.071 -61.621 189.846 -61.6172 199.623C-61.6133 209.4 -61.6094 219.179 -61.6558 228.959C-61.8101 232.013 -60.6988 234.079 -58.0442 235.622C-51.0175 239.786 -43.9916 243.95 -36.9659 248.114C-11.0441 263.476 14.8741 278.837 40.8116 294.188C41.4997 294.568 42.1918 295.005 42.893 295.449C44.5309 296.485 46.2185 297.553 48.0227 297.984C48.1931 298.024 48.3701 297.969 48.4916 297.843C48.8695 297.451 49.5389 297.821 49.3902 298.345C49.3774 298.39 49.3647 298.435 49.3519 298.48C49.285 298.715 49.3814 298.966 49.5889 299.096C60.4724 305.903 71.5685 312.431 82.6622 318.958C90.7138 323.695 98.7641 328.432 106.731 333.273C109.293 334.8 111.685 336.127 114.587 334.399C128.275 326.294 141.965 318.19 155.655 310.086C195.531 286.48 235.411 262.873 275.256 239.231C276.077 238.729 276.898 238.27 277.708 237.818C279.95 236.566 282.096 235.367 283.846 233.449C284.674 232.541 284.999 231.308 284.981 230.08C284.868 222.179 284.893 214.27 284.918 206.363C284.937 200.494 284.956 194.626 284.918 188.763C285.088 186.557 282.695 184.768 281.044 183.719C271.926 178.243 262.79 172.845 253.656 167.447C245.936 162.886 238.218 158.325 230.513 153.719C229.77 153.259 229.129 153.069 228.589 153.151C227.568 153.307 227.344 154.601 227.314 155.634C227.114 162.47 227.163 169.343 227.212 176.214C227.261 183.012 227.309 189.809 227.117 196.567C226.869 199.332 225.175 200.363 223.238 201.542C222.765 201.83 222.277 202.127 221.792 202.46C207.516 210.835 193.27 219.287 179.04 227.74C178.134 228.229 177.299 228.781 176.481 229.322C175.956 229.669 175.438 230.012 174.914 230.329C172.193 231.976 169.503 229.482 169.438 226.303C169.201 214.844 169.246 203.364 169.291 191.89C169.322 184.091 169.353 176.294 169.295 168.51C169.289 167.726 169.224 166.763 168.491 166.487C167.586 166.148 166.303 166.86 165.406 167.357C165.299 167.416 165.198 167.472 165.103 167.523C156.876 172.428 148.642 177.31 140.408 182.192C132.174 187.074 123.94 191.956 115.713 196.861C113.275 198.326 111.083 198.835 108.475 197.292C100.308 192.558 92.1864 187.719 84.0637 182.88C75.1847 177.59 66.3047 172.3 57.3635 167.144C57.0716 166.976 56.8044 166.764 56.5039 166.611C56.4091 166.563 56.3133 166.524 56.2166 166.495C54.6772 166.023 53.9411 168.214 53.915 169.824C53.7752 178.443 53.826 187.075 53.8768 195.707C53.9358 205.734 53.9948 215.762 53.755 225.767C53.6724 229.21 50.6203 231.68 47.6981 229.858C47.3258 229.625 46.9543 229.386 46.5789 229.143C45.8083 228.646 45.0211 228.138 44.1762 227.663C39.6738 225.001 35.1729 222.335 30.6716 219.668C20.9308 213.898 11.188 208.126 1.42361 202.398C1.05688 202.144 0.659042 201.894 0.252495 201.638C-1.68506 200.421 -3.8207 199.079 -3.7314 196.567C-3.88574 177.025 -3.82401 157.421 -3.76227 137.863C-3.6388 134.762 -5.36742 132.911 -7.92949 131.477C-16.8965 126.189 -25.8873 120.854 -34.8737 115.521Z" fill="white" fill-opacity="0.03"/>
</g>
</g>
<defs>
<filter id="filter0_b" x="-148.412" y="-115.802" width="526.269" height="483.017" filterUnits="userSpaceOnUse" color-interpolation-filters="sRGB">
<feFlood flood-opacity="0" result="BackgroundImageFix"/>
<feGaussianBlur in="BackgroundImage" stdDeviation="16"/>
<feComposite in2="SourceAlpha" operator="in" result="effect1_backgroundBlur"/>
<feBlend mode="normal" in="SourceGraphic" in2="effect1_backgroundBlur" result="shape"/>
</filter>
<linearGradient id="paint0_linear" x1="405.643" y1="205.932" x2="58.7569" y2="207.363" gradientUnits="userSpaceOnUse">
<stop stop-color="#121212"/>
<stop offset="0.566106" stop-color="#121212" stop-opacity="0.32"/>
<stop offset="1" stop-color="#121212" stop-opacity="0"/>
</linearGradient>
</defs>
</svg>
